<?xml version="1.0" encoding="utf-8"?>
<!-- Generator: Adobe Illustrator 22.1.0, SVG Export Plug-In . SVG Version: 6.00 Build 0)  -->
<svg version="1.1" id="Layer_1" xmlns="http://www.w3.org/2000/svg" xmlns:xlink="http://www.w3.org/1999/xlink" x="0px" y="0px"
	 viewBox="0 0 598.3 238.8" style="enable-background:new 0 0 598.3 238.8;" xml:space="preserve">
<style type="text/css">
	.st0{fill:#3D3D3D;}
</style>
<g>
	<path class="st0" d="M103.8,0h48.4v127.1c0,21.9-9.4,67.7-76.6,67.7S1.2,152.1,1.2,128.1v-23.4h46.9v22.9
		c0,14.1,9.4,27.1,27.1,27.1s28.6-9.9,28.6-26.6L103.8,0z"/>
	<path class="st0" d="M254.4,107.9c0-13.1-7.3-25.5-23.9-25.5c-16.1,0-21.8,11.5-21.8,25.5H254.4z M227.3,53.1
		c38.1,0,71.4,14.6,71.4,81.7h-90.1c0,21.3,8.9,30.2,24.5,30.2s20.8-12.6,20.8-12.6h44.3c0,19.2-26.6,45.4-66.7,44.9
		c-45.9,0-68.3-33.9-68.3-68.8C163.2,93.8,183.1,53.1,227.3,53.1"/>
	<path class="st0" d="M399.2,107.9c0-13.1-7.3-25.5-23.9-25.5c-16.1,0-21.8,11.5-21.8,25.5H399.2z M372.2,53.1
		c38,0,71.4,14.6,71.4,81.7h-90.1c0,21.3,8.9,30.2,24.5,30.2s20.8-12.6,20.8-12.6h44.3c0,19.2-26.5,45.4-66.7,44.9
		c-45.9,0-68.2-33.9-68.2-68.8C308.1,93.8,327.8,53.1,372.2,53.1"/>
	<path class="st0" d="M499.2,127.1c-0.5,26.6,5.2,40.7,27.1,40.7c21.8,0,25-23.9,25-42.2s-4.2-36-27.1-36
		C510,89.6,499.7,100.5,499.2,127.1 M454.9,238.1V58.3h44.8v20.4c1.6-3.5,2.8-5.9,6.3-10.1c3-3.7,11.5-14.1,33.9-14.1
		c22.4,0,57.3,15.7,57.3,70.9c0,42.7-20.8,74-56.8,74c-19.8,0-28.7-6.9-33.9-11c-3.3-2.6-4.4-3.8-6.3-6.3V238L454.9,238.1
		L454.9,238.1z"/>
	<path class="st0" d="M584,217.2c1.8,0,3.2,0.2,4,0.5c1.5,0.6,2.3,1.9,2.3,3.7c0,1.3-0.5,2.3-1.4,2.9c-0.5,0.3-1.2,0.6-2.1,0.7
		c1.1,0.2,2,0.7,2.5,1.5c0.5,0.8,0.8,1.5,0.8,2.3v1.1v1.1c0,0.4,0.1,0.7,0.1,0.8l0.1,0.2h-2.5v-0.1c0,0,0-0.1,0-0.2l-0.1-0.5V230
		c0-1.7-0.5-2.8-1.4-3.4c-0.6-0.3-1.5-0.5-2.9-0.5h-2v5.8h-2.6v-14.7L584,217.2z M586.8,219.5c-0.6-0.4-1.7-0.5-3.1-0.5h-2.2v5.3
		h2.3c1.1,0,1.9-0.1,2.5-0.3c1-0.4,1.5-1.2,1.5-2.3S587.5,219.9,586.8,219.5 M593.8,234.2c-2.6,2.6-5.8,4-9.5,4
		c-3.7,0-6.9-1.3-9.5-4c-2.6-2.6-3.9-5.8-3.9-9.5c0-3.7,1.3-6.9,3.9-9.5c2.6-2.6,5.8-3.9,9.5-3.9c3.7,0,6.9,1.3,9.5,3.9
		c2.6,2.6,3.9,5.8,3.9,9.5C597.7,228.4,596.4,231.5,593.8,234.2 M576.1,216.4c-2.2,2.2-3.4,5-3.4,8.2s1.1,6,3.3,8.2
		c2.3,2.3,5,3.4,8.2,3.4c3.2,0,5.9-1.1,8.2-3.4s3.4-5,3.4-8.2s-1.1-5.9-3.4-8.2s-5-3.4-8.2-3.4C581.1,213,578.4,214.2,576.1,216.4"
		/>
</g>
</svg>
