<svg enable-background="new 0 0 598.3 238.8" viewBox="0 0 598.3 238.8" xmlns="http://www.w3.org/2000/svg"><g fill="#fff"><path d="m102.9 0h48.6v127.5c0 22-9.4 67.9-76.8 67.9-67.4 0-74.7-42.8-74.7-66.9v-23.5h47v23c0 14.1 9.4 27.2 27.2 27.2s28.7-9.9 28.7-26.7z"/><path d="m253.9 108.2c0-13.1-7.3-25.6-24-25.6-16.2 0-21.9 11.5-21.9 25.6zm-27.1-54.9c38.2 0 71.6 14.6 71.6 82h-90.4c0 21.4 8.9 30.3 24.6 30.3s20.9-12.6 20.9-12.6h44.4c0 19.3-26.7 45.5-66.9 45-46 0-68.5-34-68.5-69 0-34.9 19.9-75.7 64.3-75.7"/><path d="m399.2 108.2c0-13.1-7.3-25.6-24-25.6-16.2 0-21.9 11.5-21.9 25.6zm-27.1-54.9c38.1 0 71.6 14.6 71.6 82h-90.4c0 21.4 8.9 30.3 24.6 30.3s20.9-12.6 20.9-12.6h44.4c0 19.3-26.6 45.5-66.9 45-46 0-68.4-34-68.4-69-.1-34.9 19.7-75.7 64.2-75.7"/><path d="m499.5 127.5c-.5 26.7 5.2 40.8 27.2 40.8 21.9 0 25.1-24 25.1-42.3s-4.2-36.1-27.2-36.1c-14.2 0-24.6 10.9-25.1 37.6m-44.4 111.3v-180.3h44.9v20.5c1.6-3.5 2.8-5.9 6.3-10.1 3-3.7 11.5-14.1 34-14.1s57.5 15.7 57.5 71.1c0 42.8-20.9 74.2-57 74.2-19.9 0-28.8-6.9-34-11-3.3-2.6-4.4-3.8-6.3-6.3v55.9h-45.4z"/><path d="m584.6 217.9c1.8 0 3.2.2 4 .5 1.5.6 2.3 1.9 2.3 3.7 0 1.3-.5 2.3-1.4 2.9-.5.3-1.2.6-2.1.7 1.1.2 2 .7 2.5 1.5s.8 1.5.8 2.3v1.1 1.1c0 .4.1.7.1.8l.1.2h-2.5v-.1s0-.1 0-.2l-.1-.5v-1.2c0-1.7-.5-2.8-1.4-3.4-.6-.3-1.5-.5-2.9-.5h-2v5.8h-2.6v-14.7zm2.8 2.3c-.6-.4-1.7-.5-3.1-.5h-2.2v5.3h2.3c1.1 0 1.9-.1 2.5-.3 1-.4 1.5-1.2 1.5-2.3s-.3-1.8-1-2.2m7 14.7c-2.6 2.6-5.8 4-9.5 4s-6.9-1.3-9.5-4c-2.6-2.6-3.9-5.8-3.9-9.5s1.3-6.9 3.9-9.5 5.8-3.9 9.5-3.9 6.9 1.3 9.5 3.9 3.9 5.8 3.9 9.5-1.3 6.8-3.9 9.5m-17.7-17.8c-2.2 2.2-3.4 5-3.4 8.2s1.1 6 3.3 8.2c2.3 2.3 5 3.4 8.2 3.4s5.9-1.1 8.2-3.4 3.4-5 3.4-8.2-1.1-5.9-3.4-8.2-5-3.4-8.2-3.4c-3.1 0-5.8 1.2-8.1 3.4"/></g></svg>