<svg xmlns="http://www.w3.org/2000/svg" width="217.994" height="95.872" viewBox="0 0 217.994 95.872">
    <defs>
        <style>
            .cls-1{fill:#fff}
        </style>
    </defs>
    <g id="Group_2015" transform="translate(-1002.863 -314)">
        <g id="Group_2010" transform="translate(1130.138 314.253)">
            <path id="Path_543" d="M1340.889 314.672h16.967v3.621h-13.185v7.884h12.222v3.623h-12.222v7.884h13.185v3.847h-16.967z" class="cls-1" transform="translate(-1340.889 -314.672)"/>
        </g>
        <path id="Path_544" d="M1493.511 316.489q-2.593-1.811-7.5-1.811h-8.511v26.592h8.006q5.129 0 7.864-1.774a6.1 6.1 0 0 0 2.734-5.509V321.55a5.828 5.828 0 0 0-2.593-5.061zm-1.759 17.337a4.2 4.2 0 0 1-4.427 3.926h-5.878v-19.56h5.878a4.2 4.2 0 0 1 4.427 3.926z" class="cls-1" transform="translate(-295.925 -.423)"/>
        <path id="Path_545" d="M1216.442 341.25V314.6h6.139q6.738 0 6.738 7.824a9.865 9.865 0 0 1-.73 4.006 5.666 5.666 0 0 1-2.564 2.657l4.118 12.167h-4.043l-3.556-11.38h-2.284v11.38zm3.818-23.06v8.31h2.171a3.836 3.836 0 0 0 1.609-.281 2.185 2.185 0 0 0 .936-.8 3.654 3.654 0 0 0 .412-1.291 14.133 14.133 0 0 0 0-3.556 3.56 3.56 0 0 0-.449-1.329 3.039 3.039 0 0 0-2.7-1.048z" class="cls-1" transform="translate(-133.161 -.372)"/>
        <path id="Path_546" d="M1258.8 341.25V314.6h11.38v3.594h-7.562v7.824h6.589v3.594h-6.589v7.824h7.562v3.818z" class="cls-1" transform="translate(-159.568 -.372)"/>
        <path id="Path_547" d="M1295.183 341.25V314.6h3.669l5.765 16.06h.075V314.6h3.818v26.65h-3.594l-5.84-16.022H1299v16.022z" class="cls-1" transform="translate(-182.255 -.372)"/>
        <path id="Path_548" d="M1394.6 320.513a6.812 6.812 0 0 1 .561-2.845 6.007 6.007 0 0 1 1.5-2.059 6.328 6.328 0 0 1 2.04-1.2 6.795 6.795 0 0 1 6.682 1.2 6.268 6.268 0 0 1 1.46 2.059 6.806 6.806 0 0 1 .561 2.845v1.348h-3.818v-1.348a2.537 2.537 0 0 0-.767-2.04 2.843 2.843 0 0 0-3.631 0 2.537 2.537 0 0 0-.767 2.04v14.076a2.536 2.536 0 0 0 .767 2.04 2.843 2.843 0 0 0 3.631 0 2.536 2.536 0 0 0 .767-2.04v-5.016h-3.032V326.2h6.85v8.386a6.745 6.745 0 0 1-.561 2.883 5.94 5.94 0 0 1-1.46 1.984 6.418 6.418 0 0 1-2.078 1.236 6.644 6.644 0 0 1-4.6 0 5.994 5.994 0 0 1-2.04-1.236 5.7 5.7 0 0 1-1.5-1.984 6.751 6.751 0 0 1-.561-2.883z" class="cls-1" transform="translate(-244.239)"/>
        <path id="Path_549" d="M1432.978 341.25l5.952-26.654h3.182l5.952 26.654h-3.819l-1.123-5.728h-5.2l-1.123 5.728zm9.433-9.321l-1.872-9.658h-.075l-1.872 9.658z" class="cls-1" transform="translate(-268.166 -.372)"/>
        <path id="Path_550" d="M1532.921 341.25V314.6h11.38v3.594h-7.562v7.824h6.589v3.594h-6.589v7.824h7.562v3.818z" class="cls-1" transform="translate(-330.478 -.372)"/>
        <path id="Path_551" d="M1317.567 406.312h6.029q6.617 0 6.617 7.816a10.032 10.032 0 0 1-.717 3.983 5.6 5.6 0 0 1-2.518 2.674l4.043 12.155h-3.97l-3.492-11.37h-2.242v11.37h-3.749zm3.749 11.893h2.132a3.715 3.715 0 0 0 1.581-.281 2.041 2.041 0 0 0 .9-.8 3.47 3.47 0 0 0 .423-1.29 14.369 14.369 0 0 0 0-3.553 3.245 3.245 0 0 0-.459-1.309 2.091 2.091 0 0 0-.974-.8 4.361 4.361 0 0 0-1.654-.262h-1.948z" class="cls-1" transform="translate(-196.21 -57.554)"/>
        <path id="Path_552" d="M1247.81 409.9h-4.338v-3.59h12.428v3.59h-4.338v23.04h-3.749z" class="cls-1" transform="translate(-150.014 -57.554)"/>
        <path id="Path_553" d="M1106.339 432.94h-3.309l-5.33-26.628h3.97l2.978 18.587h.074l3.014-18.587h3.97z" class="cls-1" transform="translate(-59.128 -57.554)"/>
        <path id="Path_554" d="M1008.878 406.312H1012l5.844 26.628h-3.744l-1.1-5.722h-5.11l-1.1 5.722h-3.75zm1.581 7.667h-.073l-1.838 9.649h3.75z" class="cls-1" transform="translate(-.106 -57.554)"/>
        <path id="Path_555" d="M1069.878 406.312H1073l5.844 26.628h-3.75l-1.1-5.722h-5.11l-1.1 5.722h-3.75zm1.581 7.667h-.073l-1.838 9.649h3.75z" class="cls-1" transform="translate(-38.138 -57.554)"/>
        <path id="Path_556" d="M1362.878 406.312H1366l5.844 26.628h-3.75l-1.1-5.722h-5.11l-1.1 5.722h-3.75zm1.581 7.667h-.073l-1.838 9.649h3.75z" class="cls-1" transform="translate(-220.816 -57.554)"/>
        <path id="Path_557" d="M1292.446 426.956a6.139 6.139 0 0 1-.478 2.431 6.288 6.288 0 0 1-1.3 1.964 6.162 6.162 0 0 1-1.93 1.328 5.936 5.936 0 0 1-4.705 0 6.157 6.157 0 0 1-1.93-1.328 6.271 6.271 0 0 1-1.3-1.964 6.13 6.13 0 0 1-.478-2.431v-20.644h3.75v20.27a2.887 2.887 0 0 0 .661 2.094 2.369 2.369 0 0 0 3.308 0 2.886 2.886 0 0 0 .662-2.094v-20.27h3.749z" class="cls-1" transform="translate(-172.985 -57.554)"/>
        <path id="Path_558" d="M1137 406.312h23.977v3.59h-20.227v7.816h19.272v3.591h-19.272v7.816h20.227v3.815H1137z" class="cls-1" transform="translate(-83.629 -57.554)"/>
        <path id="Path_559" d="M1205.183 433.25V406.6h3.669l5.765 16.06h.075V406.6h3.818v26.65h-3.594l-5.84-16.022H1209v16.022z" class="cls-1" transform="translate(-126.142 -57.731)"/>
        <path id="Path_560" d="M1408.353 407.854h9.235v3.582h-5.495v7.8h4.541v3.582h-4.541v7.8h5.495v3.805h-9.235z" class="cls-1" transform="translate(-252.813 -58.515)"/>
        <g id="Group_2011" transform="translate(1165.888 349.189)">
            <path id="Path_561" d="M1448.755 415.38h-3.765v-.864a4.145 4.145 0 0 0-.609-2.272 2.238 2.238 0 0 0-2.048-.957 2.434 2.434 0 0 0-1.273.3 2.2 2.2 0 0 0-.775.77 3.253 3.253 0 0 0-.388 1.089 7.352 7.352 0 0 0-.111 1.3q0 .788.055 1.333a2.391 2.391 0 0 0 .277.939 2.135 2.135 0 0 0 .646.695 5.843 5.843 0 0 0 1.162.6l2.879 1.164a7.128 7.128 0 0 1 2.03 1.145 4.644 4.644 0 0 1 1.2 1.54 6.618 6.618 0 0 1 .572 2.028 20.7 20.7 0 0 1 .148 2.61 13.964 13.964 0 0 1-.333 3.135 6.671 6.671 0 0 1-1.089 2.479 5.251 5.251 0 0 1-2.012 1.633 7.065 7.065 0 0 1-3.063.6 6.609 6.609 0 0 1-2.547-.488 6.189 6.189 0 0 1-2.03-1.333 6.348 6.348 0 0 1-1.846-4.525v-1.427h3.765v1.2a3.166 3.166 0 0 0 .609 1.9 2.354 2.354 0 0 0 2.049.845 3.252 3.252 0 0 0 1.494-.282 1.918 1.918 0 0 0 .812-.788 3.29 3.29 0 0 0 .35-1.258q.074-.751.074-1.652a16.5 16.5 0 0 0-.074-1.727 2.783 2.783 0 0 0-.313-1.089 1.938 1.938 0 0 0-.664-.676 8.893 8.893 0 0 0-1.126-.563l-2.694-1.126a5.992 5.992 0 0 1-3.266-2.685 9.373 9.373 0 0 1-.83-4.187 9.855 9.855 0 0 1 .406-2.854 6.693 6.693 0 0 1 1.2-2.328 5.736 5.736 0 0 1 2.011-1.558 6.524 6.524 0 0 1 2.842-.582 6.159 6.159 0 0 1 2.565.526 6.378 6.378 0 0 1 1.993 1.389 6.183 6.183 0 0 1 1.273 1.934 5.685 5.685 0 0 1 .443 2.2z" class="cls-1" transform="translate(-1435.837 -407.457)"/>
        </g>
        <g id="Group_2012" transform="translate(1179.175 349.414)">
            <path id="Path_562" d="M1475.48 411.661h-4.355v-3.6h12.475v3.6h-4.355v23.131h-3.765z" class="cls-1" transform="translate(-1471.125 -408.056)"/>
        </g>
        <g id="Group_2013" transform="translate(1189.029 349.414)">
            <path id="Path_563" d="M1503.165 408.056h3.137l5.869 26.736h-3.765l-1.107-5.745h-5.13l-1.107 5.745h-3.762zm1.587 7.7h-.074l-1.845 9.688h3.764z" class="cls-1" transform="translate(-1497.296 -408.056)"/>
        </g>
        <g id="Group_2014" transform="translate(1195.137 344.875)">
            <path id="Path_564" d="M1513.517 399.282l3.17-3.282h3.8l-4.649 3.282z" class="cls-1" transform="translate(-1513.517 -396)"/>
        </g>
        <path id="Path_565" d="M1002.863 516.127v-26.533h3.652l5.739 15.987h.075v-15.987h3.8v26.533h-3.578l-5.814-15.95h-.074v15.95z" class="cls-1" transform="translate(0 -106.479)"/>
        <path id="Path_566" d="M1043.029 495.484a6.782 6.782 0 0 1 .559-2.833 5.986 5.986 0 0 1 1.491-2.049 6.311 6.311 0 0 1 2.031-1.193 6.764 6.764 0 0 1 6.652 1.193 6.241 6.241 0 0 1 1.453 2.049 6.78 6.78 0 0 1 .559 2.833V509.5a6.713 6.713 0 0 1-.559 2.869 5.91 5.91 0 0 1-1.453 1.975 6.39 6.39 0 0 1-2.068 1.23 6.61 6.61 0 0 1-4.584 0 5.968 5.968 0 0 1-2.031-1.23 5.681 5.681 0 0 1-1.491-1.975 6.715 6.715 0 0 1-.559-2.869zm3.8 14.012a2.526 2.526 0 0 0 .764 2.031 2.832 2.832 0 0 0 3.615 0 2.528 2.528 0 0 0 .764-2.031v-14.012a2.529 2.529 0 0 0-.764-2.031 2.829 2.829 0 0 0-3.615 0 2.526 2.526 0 0 0-.764 2.031z" class="cls-1" transform="translate(-25.043 -106.108)"/>
        <path id="Path_567" d="M1115.257 496.863h-3.8v-.857a4.059 4.059 0 0 0-.615-2.255 2.275 2.275 0 0 0-2.068-.95 2.39 2.39 0 0 0-1.267.3 2.5 2.5 0 0 0-.783.745 3.152 3.152 0 0 0-.41 1.1 7.177 7.177 0 0 0-.112 1.286 12.612 12.612 0 0 0 .056 1.3 2.473 2.473 0 0 0 .279.931 2.072 2.072 0 0 0 .652.708 5.95 5.95 0 0 0 1.174.6l2.907 1.155a7.236 7.236 0 0 1 2.05 1.137 4.923 4.923 0 0 1 1.23 1.509 7.062 7.062 0 0 1 .559 2.031 20.151 20.151 0 0 1 .15 2.591 13.645 13.645 0 0 1-.336 3.111 6.553 6.553 0 0 1-1.081 2.441 5.355 5.355 0 0 1-2.05 1.639 7.233 7.233 0 0 1-3.093.6 6.77 6.77 0 0 1-2.571-.485 6.1 6.1 0 0 1-2.05-1.342 6.509 6.509 0 0 1-1.36-1.994 6.052 6.052 0 0 1-.5-2.478v-1.416h3.8v1.192a3.1 3.1 0 0 0 .615 1.882 2.394 2.394 0 0 0 2.068.839 3.335 3.335 0 0 0 1.509-.279 2.006 2.006 0 0 0 .839-.8 2.943 2.943 0 0 0 .354-1.248q.056-.727.056-1.621a16.076 16.076 0 0 0-.075-1.715 2.959 2.959 0 0 0-.3-1.081 2.107 2.107 0 0 0-.689-.671 8.948 8.948 0 0 0-1.137-.559l-2.72-1.118a6.023 6.023 0 0 1-3.3-2.664 9.17 9.17 0 0 1-.839-4.155 9.63 9.63 0 0 1 .41-2.832 6.433 6.433 0 0 1 1.23-2.31 5.644 5.644 0 0 1 1.994-1.547 6.659 6.659 0 0 1 2.888-.578 6.315 6.315 0 0 1 2.59.521 6.683 6.683 0 0 1 2.031 1.379 5.759 5.759 0 0 1 1.715 4.1z" class="cls-1" transform="translate(-61.943 -106.108)"/>
        <path id="Path_568" d="M1138.928 516.127l5.925-26.533h3.168l5.925 26.533h-3.8l-1.118-5.7h-5.18l-1.118 5.7zm9.391-9.279l-1.863-9.614h-.075l-1.863 9.614z" class="cls-1" transform="translate(-84.833 -106.479)"/>
        <path id="Path_569" d="M1182.472 516.127v-26.533h3.652l5.739 15.987h.074v-15.987h3.8v26.533h-3.577l-5.813-15.95h-.075v15.95z" class="cls-1" transform="translate(-111.982 -106.479)"/>
        <path id="Path_570" d="M1223.532 495.484a6.78 6.78 0 0 1 .559-2.833 5.982 5.982 0 0 1 1.49-2.049 6.313 6.313 0 0 1 2.031-1.193 6.765 6.765 0 0 1 6.652 1.193 6.243 6.243 0 0 1 1.453 2.049 6.782 6.782 0 0 1 .559 2.833v1.342h-3.8v-1.342a2.528 2.528 0 0 0-.764-2.031 2.83 2.83 0 0 0-3.615 0 2.526 2.526 0 0 0-.764 2.031V509.5a2.525 2.525 0 0 0 .764 2.031 2.832 2.832 0 0 0 3.615 0 2.527 2.527 0 0 0 .764-2.031v-5h-3.018v-3.354h6.82v8.354a6.715 6.715 0 0 1-.559 2.869 5.912 5.912 0 0 1-1.453 1.975 6.387 6.387 0 0 1-2.069 1.23 6.609 6.609 0 0 1-4.583 0 5.969 5.969 0 0 1-2.031-1.23 5.677 5.677 0 0 1-1.49-1.975 6.713 6.713 0 0 1-.559-2.869z" class="cls-1" transform="translate(-137.582 -106.108)"/>
        <path id="Path_571" d="M1275.008 489.594v20.571a6.006 6.006 0 0 1-1.788 4.36 6.319 6.319 0 0 1-1.975 1.342 5.942 5.942 0 0 1-2.385.485 5.8 5.8 0 0 1-2.366-.485 6.47 6.47 0 0 1-3.3-3.3 5.888 5.888 0 0 1-.484-2.4v-20.573h3.8v20.2a2.847 2.847 0 0 0 .671 2.087 2.432 2.432 0 0 0 3.354 0 2.845 2.845 0 0 0 .671-2.087v-20.2z" class="cls-1" transform="translate(-162.008 -106.479)"/>
        <path id="Path_572" d="M1376.309 553.769v-3.8h3.8v3.8z" class="cls-1" transform="translate(-232.835 -144.12)"/>
        <path id="Path_573" d="M1146.25 314.353h12.188a8.656 8.656 0 0 1 2.8.414 5.385 5.385 0 0 1 2.194 1.467 5.738 5.738 0 0 1 1.362 2.464 15.361 15.361 0 0 1 .378 3.818 18.97 18.97 0 0 1-.208 3.028 6.357 6.357 0 0 1-.889 2.351 5.617 5.617 0 0 1-2.118 2.05 7.16 7.16 0 0 1-3.479.733h-8.368v10.458h-3.858zm3.858 12.715h8.254a3.967 3.967 0 0 0 1.816-.339 2.165 2.165 0 0 0 .946-.922 3.573 3.573 0 0 0 .359-1.41q.058-.827.057-1.843 0-.94-.057-1.787a4.191 4.191 0 0 0-.34-1.467 2.162 2.162 0 0 0-.889-.978 3.464 3.464 0 0 0-1.74-.357h-8.406z" class="cls-1" transform="translate(-89.398 -.22)"/>
        <path id="Path_574" d="M1014.4 334.657a7.039 7.039 0 0 1-.441 2.487 6.282 6.282 0 0 1-1.269 2.076 6.012 6.012 0 0 1-2 1.421 6.545 6.545 0 0 1-2.683.523 5.246 5.246 0 0 1-3-.8 9.983 9.983 0 0 1-1.893-1.589l2.941-2.394a3.74 3.74 0 0 0 .938.692 2.377 2.377 0 0 0 1.121.28 2.747 2.747 0 0 0 .772-.131 2.093 2.093 0 0 0 .827-.486 2.92 2.92 0 0 0 .662-.973 4.035 4.035 0 0 0 .276-1.627v-19.824h3.749z" class="cls-1" transform="translate(-.159 -.195)"/>
        <path id="Path_575" d="M1041 314.312h23.977v3.59h-20.227v7.816h19.272v3.591h-19.272v7.816h20.227v3.815H1041z" class="cls-1" transform="translate(-23.776 -.194)"/>
        <path id="Path_576" d="M1304 489.312h23.977v3.59h-20.227v7.816h19.271v3.591h-19.271v7.816h20.227v3.815H1304z" class="cls-1" transform="translate(-187.75 -106.303)"/>
        <path id="Path_577" d="M1110.8 314.312h11.175v3.59h-7.425v7.816h6.47v3.591h-6.47v7.816h7.425v3.815H1110.8z" class="cls-1" transform="translate(-67.296 -.194)"/>
        <path id="Path_578" d="M1571.733 379.073v-3.8h3.8v3.8z" class="cls-1" transform="translate(-354.677 -38.202)"/>
    </g>
</svg>
