<?xml version="1.0" encoding="utf-8"?>
<!-- Generator: Adobe Illustrator 24.3.0, SVG Export Plug-In . SVG Version: 6.00 Build 0)  -->
<svg version="1.1" id="Layer_1" xmlns="http://www.w3.org/2000/svg" xmlns:xlink="http://www.w3.org/1999/xlink" x="0px" y="0px"
	 viewBox="0 0 593 224" style="enable-background:new 0 0 593 224;" xml:space="preserve">
<style type="text/css">
	.st0{fill:#FFFFFF;}
</style>
<path class="st0" d="M9.1,98.8v-89h20.5c15,0,22.5,8.7,22.5,26.1c0,5.3-0.8,9.7-2.4,13.4c-1.6,3.7-4.5,6.6-8.6,8.9l13.8,40.6H41.4
	l-11.9-38h-7.6v38H9.1z M21.9,21.7v27.8h7.3c2.3,0,4-0.3,5.4-0.9c1.3-0.6,2.4-1.5,3.1-2.7c0.7-1.2,1.1-2.6,1.4-4.3
	c0.3-1.7,0.4-3.7,0.4-5.9s-0.1-4.2-0.4-5.9c-0.2-1.7-0.8-3.2-1.5-4.4c-1.6-2.3-4.6-3.5-9-3.5H21.9z"/>
<path class="st0" d="M87.4,98.8v-89h38v12h-25.3v26.1h22v12h-22V86h25.3v12.8H87.4z"/>
<path class="st0" d="M158.2,98.8v-89h12.3l19.3,53.6h0.3V9.7h12.8v89h-12l-19.5-53.5H171v53.5H158.2z"/>
<path class="st0" d="M239.2,98.8v-89h38v12H252v26.1h22v12h-22V86h25.3v12.8H239.2z"/>
<path class="st0" d="M309.8,30.7c0-3.6,0.6-6.8,1.9-9.5c1.3-2.8,2.9-5,5-6.9c2-1.8,4.3-3.1,6.8-4c2.5-0.9,5.1-1.4,7.7-1.4
	c2.6,0,5.1,0.5,7.7,1.4c2.5,0.9,4.9,2.3,6.9,4c2,1.8,3.6,4.1,4.9,6.9c1.3,2.8,1.9,5.9,1.9,9.5v4.5h-12.8v-4.5c0-3.1-0.9-5.4-2.6-6.8
	c-1.7-1.5-3.7-2.2-6.1-2.2c-2.3,0-4.4,0.7-6.1,2.2c-1.7,1.5-2.6,3.7-2.6,6.8v47c0,3.1,0.9,5.4,2.6,6.8c1.7,1.5,3.7,2.2,6.1,2.2
	c2.3,0,4.4-0.7,6.1-2.2c1.7-1.5,2.6-3.7,2.6-6.8V61h-10.1V49.7h22.9v28c0,3.8-0.6,7-1.9,9.6c-1.2,2.7-2.9,4.9-4.9,6.6
	c-2.1,1.8-4.4,3.2-6.9,4.1c-2.5,0.9-5.1,1.4-7.7,1.4c-2.6,0-5.1-0.5-7.7-1.4c-2.5-0.9-4.8-2.3-6.8-4.1c-2.1-1.8-3.8-4-5-6.6
	c-1.2-2.7-1.9-5.9-1.9-9.6V30.7z"/>
<path class="st0" d="M383.1,98.8l19.9-89h10.6l19.9,89h-12.8l-3.8-19.1h-17.4l-3.8,19.1H383.1z M414.6,67.6l-6.3-32.3h-0.2
	l-6.3,32.3H414.6z"/>
<path class="st0" d="M464.7,98.8v-89h18.9c7.3,0,12.9,2,16.7,6c3.8,4,5.7,9.7,5.7,17v41.6c0,8.3-2,14.5-6.1,18.4
	c-4,4-9.9,5.9-17.4,5.9H464.7z M477.5,21.7v65h5.9c3.6,0,6.1-0.9,7.6-2.7c1.5-1.8,2.3-4.6,2.3-8.4V32.7c0-3.5-0.7-6.2-2.1-8.1
	c-1.4-1.9-4-2.9-7.8-2.9H477.5z"/>
<path class="st0" d="M543,98.8v-89h38v12h-25.3v26.1h22v12h-22V86H581v12.8H543z"/>
<path class="st0" d="M7.4,213.8v-12l23-43.4c1.2-2.2,1.8-4.1,2-5.7c0.2-1.6,0.2-3.6,0.2-6.1c0-1.1,0-2.2-0.1-3.4
	c0-1.2-0.3-2.3-0.7-3.2c-0.4-0.9-1-1.7-1.9-2.3c-0.8-0.6-2-0.9-3.6-0.9c-1.9,0-3.4,0.5-4.6,1.6c-1.1,1.1-1.7,2.7-1.7,4.8v7.3H7.4v-7
	c0-2.7,0.5-5.2,1.5-7.5c1-2.3,2.4-4.4,4.1-6.1c1.7-1.8,3.7-3.1,6-4.2c2.3-1,4.8-1.6,7.5-1.6c3.3,0,6.2,0.6,8.6,1.8
	c2.4,1.2,4.4,2.9,5.9,4.9c1.5,2.1,2.6,4.5,3.3,7.1c0.7,2.7,1.1,5.5,1.1,8.5c0,2.2,0,4-0.1,5.4c-0.1,1.5-0.2,2.9-0.5,4.2
	c-0.3,1.3-0.7,2.7-1.3,4c-0.6,1.3-1.4,3-2.4,4.9L22.4,201h23v12.8H7.4z"/>
<path class="st0" d="M78.9,143.1c0-3,0.5-5.7,1.6-8c1-2.3,2.4-4.3,4.2-6c1.8-1.7,3.8-2.9,6.1-3.8c2.3-0.9,4.7-1.3,7.2-1.3
	c2.5,0,4.9,0.4,7.2,1.3c2.3,0.9,4.3,2.1,6.1,3.8c1.8,1.7,3.1,3.7,4.2,6c1,2.3,1.6,5,1.6,8v52.3c0,3-0.5,5.7-1.6,8
	c-1,2.3-2.4,4.3-4.2,6c-1.8,1.7-3.8,2.9-6.1,3.8c-2.3,0.9-4.7,1.3-7.2,1.3c-2.5,0-4.9-0.4-7.2-1.3c-2.3-0.9-4.3-2.1-6.1-3.8
	c-1.8-1.7-3.1-3.7-4.2-6c-1-2.3-1.6-5-1.6-8V143.1z M91.7,195.4c0,1.8,0.6,3.4,1.8,4.6c1.2,1.2,2.7,1.8,4.5,1.8
	c1.8,0,3.3-0.6,4.5-1.8c1.2-1.2,1.8-2.7,1.8-4.6v-52.3c0-1.8-0.6-3.4-1.8-4.6c-1.2-1.2-2.7-1.8-4.5-1.8c-1.8,0-3.3,0.6-4.5,1.8
	c-1.2,1.2-1.8,2.7-1.8,4.6V195.4z"/>
<path class="st0" d="M150.5,213.8v-12l23-43.4c1.2-2.2,1.8-4.1,2-5.7c0.2-1.6,0.2-3.6,0.2-6.1c0-1.1,0-2.2-0.1-3.4
	c0-1.2-0.3-2.3-0.7-3.2c-0.4-0.9-1-1.7-1.9-2.3c-0.8-0.6-2-0.9-3.6-0.9c-1.9,0-3.4,0.5-4.6,1.6c-1.1,1.1-1.7,2.7-1.7,4.8v7.3h-12.8
	v-7c0-2.7,0.5-5.2,1.5-7.5c1-2.3,2.4-4.4,4.1-6.1c1.7-1.8,3.7-3.1,6-4.2c2.3-1,4.8-1.6,7.5-1.6c3.3,0,6.2,0.6,8.6,1.8
	c2.4,1.2,4.4,2.9,5.9,4.9c1.5,2.1,2.6,4.5,3.3,7.1c0.7,2.7,1.1,5.5,1.1,8.5c0,2.2,0,4-0.1,5.4c-0.1,1.5-0.2,2.9-0.5,4.2
	c-0.3,1.3-0.7,2.7-1.3,4c-0.6,1.3-1.4,3-2.4,4.9L165.5,201h23v12.8H150.5z"/>
<path class="st0" d="M237.1,213.8v-75.5l-12.8,9.4v-13.5l12.8-9.4h12.8v89H237.1z"/>
</svg>
